REM DIRINDEX 1\3,1\2\4,1\2\5,1\2\6
REM DIRNAME folder01,folder02,folder03,folder04,folder05,folder06
TITLE ""
FILE "073.mp3" MP3
  TRACK 01 AUDIO
    TITLE "4:cjc137_2990"
    INDEX 01 00:00:00
  TRACK 02 AUDIO
    TITLE "0:"
    INDEX 01 00:00:72
  TRACK 03 AUDIO
    TITLE "6:cjc137_2991"
    INDEX 01 00:01:05
  TRACK 04 AUDIO
    TITLE "0:"
    INDEX 01 00:02:00
  TRACK 05 AUDIO
    TITLE "5:cjc137_2992"
    INDEX 01 00:02:06
  TRACK 06 AUDIO
    TITLE "0:"
    INDEX 01 00:03:06
  TRACK 07 AUDIO
    TITLE "4:cjc137_2993"
    INDEX 01 00:04:15
  TRACK 08 AUDIO
    TITLE "0:"
    INDEX 01 00:05:69
  TRACK 09 AUDIO
    TITLE "6:cjc137_2994"
    INDEX 01 00:05:73
  TRACK 10 AUDIO
    TITLE "0:"
    INDEX 01 00:07:27
  TRACK 11 AUDIO
    TITLE "5:cjc137_2995"
    INDEX 01 00:07:35
  TRACK 12 AUDIO
    TITLE "0:"
    INDEX 01 00:09:12
  TRACK 13 AUDIO
    TITLE "4:cjc137_2996"
    INDEX 01 00:10:21
  TRACK 14 AUDIO
    TITLE "0:"
    INDEX 01 00:11:44
  TRACK 15 AUDIO
    TITLE "6:cjc137_2997"
    INDEX 01 00:11:50
  TRACK 16 AUDIO
    TITLE "0:"
    INDEX 01 00:12:67
  TRACK 17 AUDIO
    TITLE "5:cjc137_2998"
    INDEX 01 00:12:73
  TRACK 18 AUDIO
    TITLE "0:"
    INDEX 01 00:14:17
  TRACK 19 AUDIO
    TITLE "4:cjc137_2999"
    INDEX 01 00:15:28
  TRACK 20 AUDIO
    TITLE "0:"
    INDEX 01 00:16:38
  TRACK 21 AUDIO
    TITLE "6:cjc137_3000"
    INDEX 01 00:16:42
  TRACK 22 AUDIO
    TITLE "0:"
    INDEX 01 00:17:35
  TRACK 23 AUDIO
    TITLE "5:cjc137_3001"
    INDEX 01 00:17:41
  TRACK 24 AUDIO
    TITLE "0:"
    INDEX 01 00:18:52
  TRACK 25 AUDIO
    TITLE "4:cjc137_3002"
    INDEX 01 00:19:56
  TRACK 26 AUDIO
    TITLE "0:"
    INDEX 01 00:20:65
  TRACK 27 AUDIO
    TITLE "6:cjc137_3003"
    INDEX 01 00:20:73
  TRACK 28 AUDIO
    TITLE "0:"
    INDEX 01 00:22:40
  TRACK 29 AUDIO
    TITLE "5:cjc137_3004"
    INDEX 01 00:22:42
  TRACK 30 AUDIO
    TITLE "0:"
    INDEX 01 00:23:53
  TRACK 31 AUDIO
    TITLE "4:cjc137_3005"
    INDEX 01 00:24:61
  TRACK 32 AUDIO
    TITLE "0:"
    INDEX 01 00:25:60
  TRACK 33 AUDIO
    TITLE "6:cjc137_3006"
    INDEX 01 00:25:66
  TRACK 34 AUDIO
    TITLE "0:"
    INDEX 01 00:26:71
  TRACK 35 AUDIO
    TITLE "5:cjc137_3007"
    INDEX 01 00:26:73
  TRACK 36 AUDIO
    TITLE "0:"
    INDEX 01 00:28:00
  TRACK 37 AUDIO
    TITLE "4:cjc137_3008"
    INDEX 01 00:29:07
  TRACK 38 AUDIO
    TITLE "0:"
    INDEX 01 00:30:24
  TRACK 39 AUDIO
    TITLE "6:cjc137_3009"
    INDEX 01 00:30:30
  TRACK 40 AUDIO
    TITLE "0:"
    INDEX 01 00:31:45
  TRACK 41 AUDIO
    TITLE "5:cjc137_3010"
    INDEX 01 00:31:51
  TRACK 42 AUDIO
    TITLE "0:"
    INDEX 01 00:32:68
  TRACK 43 AUDIO
    TITLE "4:cjc137_3011"
    INDEX 01 00:34:04
  TRACK 44 AUDIO
    TITLE "0:"
    INDEX 01 00:35:27
  TRACK 45 AUDIO
    TITLE "6:cjc137_3012"
    INDEX 01 00:35:33
  TRACK 46 AUDIO
    TITLE "0:"
    INDEX 01 00:36:21
  TRACK 47 AUDIO
    TITLE "5:cjc137_3013"
    INDEX 01 00:36:25
  TRACK 48 AUDIO
    TITLE "0:"
    INDEX 01 00:37:50
  TRACK 49 AUDIO
    TITLE "4:cjc137_3014"
    INDEX 01 00:38:57
  TRACK 50 AUDIO
    TITLE "0:"
    INDEX 01 00:39:66
  TRACK 51 AUDIO
    TITLE "6:cjc137_3015"
    INDEX 01 00:39:70
  TRACK 52 AUDIO
    TITLE "0:"
    INDEX 01 00:40:66
  TRACK 53 AUDIO
    TITLE "5:cjc137_3016"
    INDEX 01 00:40:70
  TRACK 54 AUDIO
    TITLE "0:"
    INDEX 01 00:42:06
  TRACK 55 AUDIO
    TITLE "4:cjc137_3017"
    INDEX 01 00:43:11
  TRACK 56 AUDIO
    TITLE "0:"
    INDEX 01 00:44:18
  TRACK 57 AUDIO
    TITLE "6:cjc137_3018"
    INDEX 01 00:44:22
  TRACK 58 AUDIO
    TITLE "0:"
    INDEX 01 00:45:35
  TRACK 59 AUDIO
    TITLE "5:cjc137_3019"
    INDEX 01 00:45:43
  TRACK 60 AUDIO
    TITLE "0:"
    INDEX 01 00:46:47
  TRACK 61 AUDIO
    TITLE "4:cjc137_3020"
    INDEX 01 00:47:56
  TRACK 62 AUDIO
    TITLE "0:"
    INDEX 01 00:48:63
  TRACK 63 AUDIO
    TITLE "6:cjc137_3021"
    INDEX 01 00:48:69
  TRACK 64 AUDIO
    TITLE "0:"
    INDEX 01 00:50:33
  TRACK 65 AUDIO
    TITLE "5:cjc137_3022"
    INDEX 01 00:50:39
  TRACK 66 AUDIO
    TITLE "0:"
    INDEX 01 00:51:48
  TRACK 67 AUDIO
    TITLE "4:cjc137_3023"
    INDEX 01 00:52:55
  TRACK 68 AUDIO
    TITLE "0:"
    INDEX 01 00:53:66
  TRACK 69 AUDIO
    TITLE "6:cjc137_3024"
    INDEX 01 00:53:72
  TRACK 70 AUDIO
    TITLE "0:"
    INDEX 01 00:55:42
  TRACK 71 AUDIO
    TITLE "5:cjc137_3025"
    INDEX 01 00:55:46
  TRACK 72 AUDIO
    TITLE "0:"
    INDEX 01 00:56:57
  TRACK 73 AUDIO
    TITLE "4:cjc137_3026"
    INDEX 01 00:57:66
  TRACK 74 AUDIO
    TITLE "0:"
    INDEX 01 00:58:69
  TRACK 75 AUDIO
    TITLE "6:cjc137_3027"
    INDEX 01 00:59:00
  TRACK 76 AUDIO
    TITLE "0:"
    INDEX 01 01:00:06
  TRACK 77 AUDIO
    TITLE "5:cjc137_3028"
    INDEX 01 01:00:10
  TRACK 78 AUDIO
    TITLE "0:"
    INDEX 01 01:01:11
  TRACK 79 AUDIO
    TITLE "4:cjc137_3029"
    INDEX 01 01:02:24
  TRACK 80 AUDIO
    TITLE "0:"
    INDEX 01 01:03:18
  TRACK 81 AUDIO
    TITLE "6:cjc137_3030"
    INDEX 01 01:03:31
  TRACK 82 AUDIO
    TITLE "0:"
    INDEX 01 01:04:11
  TRACK 83 AUDIO
    TITLE "5:cjc137_3031"
    INDEX 01 01:04:15
  TRACK 84 AUDIO
    TITLE "0:"
    INDEX 01 01:05:09
